<mxfile host="app.diagrams.net" modified="2024-08-27T19:50:35.018Z" agent="Mozilla/5.0 (Windows NT 10.0; Win64; x64) AppleWebKit/537.36 (KHTML, like Gecko) Chrome/127.0.0.0 Safari/537.36" version="24.7.1" etag="UsEsrbAMtbo4BgADYzKH" type="github">
  <diagram name="Page-1" id="f83H48yFrM_7GTfXQYf_">
    <mxGraphModel>
      <root>
        <mxCell id="0" />
        <mxCell id="1" parent="0" />
      </root>
    </mxGraphModel>
  </diagram>
</mxfile>
